# xmcd
#
# Track frame offsets:
#	150
#	10395
#	25338
#	38803
#	47733
#	59953
#	68017
#	82444
#	90752
#	104136
#	109608
#	122143
#	132111
#	145133
#	160097
#	178220
#
# Disc length: 2572 seconds
#
# Revision: 1
# Processed by: cddbd v1.5.2PL0 Copyright (c) Steve Scherf et al.
# Submitted via: EasyCDDAExtractor 2010.6.0.0
#
DISCID=e40a0a10
DTITLE=Vladimir Vysotsky - 06 Чужая колея (На концертах Высоцкого №6)
DYEAR=2002
DGENRE=Vocal
TTITLE0=Утренняя гимнастика
TTITLE1=Жертва телевиденья
TTITLE2=Песенка про Козла отпущения
TTITLE3=Про любовь в каменном веке
TTITLE4=Песня о двух красивых автомобилях
TTITLE5=То ли в избу и запеть ...
TTITLE6=Чужая колея
TTITLE7=Марафон
TTITLE8=Песня о штангисте
TTITLE9=Высота
TTITLE10=Сыновья уходят в бой
TTITLE11=Я уехал в Магадан
TTITLE12=Несостоявшийся роман
TTITLE13=Невидимка
TTITLE14=На стол колоду, господа
TTITLE15=Песня про первые ряды
EXTD=
EXTT0=
EXTT1=
EXTT2=
EXTT3=
EXTT4=
EXTT5=
EXTT6=
EXTT7=
EXTT8=
EXTT9=
EXTT10=
EXTT11=
EXTT12=
EXTT13=
EXTT14=
EXTT15=
PLAYORDER=
